<svg id="svg" version="1.1" xmlns="http://www.w3.org/2000/svg" xmlns:xlink="http://www.w3.org/1999/xlink" width="400" height="400" viewBox="0, 0, 400,400"><g id="svgg"><path id="path0" d="M212.527 136.708 C 212.082 137.036,211.310 137.154,210.537 137.011 C 209.729 136.862,209.217 136.950,209.115 137.256 C 209.027 137.518,208.246 137.748,207.378 137.767 C 206.510 137.785,205.682 137.964,205.537 138.164 C 205.392 138.364,204.942 138.554,204.537 138.586 C 203.308 138.683,193.515 143.639,191.733 145.065 C 190.816 145.799,189.922 146.400,189.748 146.400 C 189.573 146.400,188.647 147.165,187.689 148.100 C 185.182 150.549,184.800 149.892,184.800 143.124 L 184.800 138.000 158.600 138.000 L 132.400 138.000 132.400 184.400 L 132.400 230.800 158.600 230.800 L 184.800 230.800 184.800 225.249 C 184.800 218.394,185.037 218.009,187.790 220.391 C 188.819 221.282,190.143 222.260,190.732 222.565 C 191.320 222.869,192.144 223.497,192.563 223.959 C 192.982 224.422,193.480 224.800,193.670 224.800 C 193.860 224.800,194.777 225.287,195.708 225.881 C 196.639 226.476,197.580 226.994,197.800 227.033 C 198.020 227.071,198.920 227.421,199.800 227.810 C 200.680 228.199,201.580 228.565,201.800 228.622 C 202.020 228.680,202.920 229.047,203.800 229.438 C 204.680 229.829,205.542 230.113,205.716 230.069 C 205.890 230.025,206.430 230.204,206.916 230.467 C 207.402 230.730,208.234 230.993,208.764 231.052 C 209.294 231.111,209.834 231.321,209.964 231.520 C 210.317 232.059,232.132 231.991,232.482 231.449 C 232.636 231.209,233.526 231.033,234.459 231.057 C 235.397 231.082,236.394 230.863,236.689 230.568 C 236.983 230.274,237.473 230.130,237.779 230.247 C 238.085 230.365,238.769 230.176,239.300 229.829 C 239.830 229.482,240.360 229.293,240.477 229.410 C 240.594 229.527,241.886 228.988,243.348 228.213 C 244.811 227.437,246.140 226.838,246.304 226.882 C 246.671 226.982,250.800 224.421,250.800 224.093 C 250.800 223.963,249.892 222.088,248.782 219.928 C 247.673 217.768,246.860 216.000,246.976 216.000 C 247.093 216.000,246.737 215.235,246.186 214.300 C 245.634 213.365,244.611 211.480,243.912 210.112 C 242.646 207.635,241.710 206.775,241.192 207.613 C 241.042 207.855,240.668 208.103,240.360 208.164 C 240.052 208.226,238.630 208.814,237.200 209.473 C 234.402 210.760,232.493 211.378,231.709 211.250 C 231.440 211.205,230.781 211.456,230.247 211.806 C 229.441 212.334,228.806 212.380,226.537 212.075 C 224.834 211.845,222.710 211.851,220.914 212.089 C 218.521 212.407,217.809 212.363,216.744 211.832 C 216.037 211.479,215.137 211.293,214.745 211.418 C 214.352 211.542,213.618 211.418,213.115 211.141 C 212.612 210.865,211.956 210.598,211.658 210.549 C 207.464 209.852,196.955 201.372,196.603 198.400 C 196.590 198.290,196.281 197.750,195.917 197.200 C 195.553 196.650,195.197 195.930,195.127 195.600 C 195.057 195.270,194.853 194.892,194.673 194.760 C 194.494 194.628,194.307 194.268,194.258 193.960 C 194.209 193.652,193.974 193.059,193.737 192.643 C 193.499 192.227,193.392 191.552,193.499 191.143 C 193.606 190.734,193.512 190.400,193.290 190.400 C 192.592 190.400,192.381 188.529,192.838 186.395 C 193.167 184.864,193.158 183.696,192.802 181.813 C 192.417 179.772,192.427 179.105,192.855 178.343 C 193.147 177.824,193.408 177.092,193.437 176.715 C 193.647 173.957,201.271 162.400,202.880 162.400 C 203.025 162.400,204.256 161.661,205.615 160.758 C 206.975 159.855,208.319 159.082,208.603 159.041 C 208.887 158.999,209.407 158.726,209.760 158.433 C 210.112 158.141,210.400 158.019,210.400 158.161 C 210.400 158.304,210.917 158.153,211.549 157.826 C 212.181 157.499,212.821 157.355,212.971 157.504 C 213.121 157.654,213.404 157.517,213.600 157.200 C 213.992 156.566,216.551 156.411,218.700 156.890 C 219.662 157.105,220.000 157.041,220.000 156.646 C 220.000 155.522,227.028 155.497,227.697 156.619 C 227.918 156.991,228.384 157.017,229.547 156.722 C 230.773 156.411,231.364 156.464,232.350 156.974 C 233.038 157.330,233.600 157.521,233.600 157.400 C 233.600 157.279,234.138 157.458,234.796 157.798 C 235.454 158.138,236.091 158.394,236.213 158.367 C 236.696 158.259,238.800 159.320,238.800 159.672 C 238.800 159.878,238.965 159.945,239.168 159.820 C 239.370 159.695,239.783 159.841,240.086 160.144 C 241.451 161.508,242.817 161.263,243.067 159.607 C 243.116 159.281,243.347 158.951,243.581 158.873 C 243.814 158.795,243.912 158.582,243.799 158.398 C 243.685 158.215,243.827 157.825,244.114 157.532 C 244.690 156.944,247.686 150.929,247.846 150.040 C 247.902 149.732,248.184 149.330,248.473 149.146 C 248.763 148.963,248.837 148.809,248.638 148.806 C 248.439 148.803,248.544 148.485,248.871 148.100 C 249.431 147.442,250.800 144.724,250.800 144.272 C 250.800 144.006,244.459 140.256,243.856 140.166 C 243.605 140.128,242.680 139.778,241.800 139.387 C 240.920 138.996,240.058 138.707,239.884 138.744 C 239.710 138.781,239.170 138.594,238.684 138.329 C 238.198 138.063,237.112 137.826,236.272 137.801 C 235.431 137.776,234.621 137.576,234.472 137.357 C 234.322 137.138,233.426 136.964,232.480 136.970 C 231.534 136.977,230.634 136.791,230.480 136.559 C 230.035 135.886,213.453 136.024,212.527 136.708 M315.485 137.907 L 305.170 138.014 305.285 156.607 L 305.400 175.200 290.333 175.200 L 275.266 175.200 275.333 156.600 L 275.400 138.000 264.900 138.000 L 254.400 138.000 254.400 184.607 L 254.400 231.213 264.868 231.107 L 275.335 231.000 275.368 211.800 L 275.400 192.600 289.800 192.488 C 297.720 192.427,304.605 192.476,305.100 192.596 C 305.976 192.809,306.400 194.000,305.600 194.000 C 305.339 194.000,305.200 200.384,305.200 212.353 L 305.200 230.707 306.100 230.948 C 306.595 231.081,311.635 231.192,317.300 231.195 L 327.600 231.200 327.600 184.500 L 327.600 137.800 326.700 137.800 C 326.205 137.800,321.158 137.848,315.485 137.907 M44.400 184.400 L 44.400 230.800 54.400 230.800 L 64.400 230.800 64.400 184.400 L 64.400 138.000 54.400 138.000 L 44.400 138.000 44.400 184.400 M72.400 184.400 L 72.400 230.800 83.615 230.800 L 94.830 230.800 94.715 211.804 L 94.600 192.809 109.800 192.704 L 125.000 192.600 125.108 184.100 L 125.216 175.600 110.241 175.600 C 102.004 175.600,94.981 175.491,94.633 175.357 C 93.942 175.092,93.754 174.000,94.400 174.000 C 94.950 174.000,94.943 157.336,94.393 156.996 C 93.052 156.167,95.775 156.000,110.624 156.000 L 126.800 156.000 126.800 147.000 L 126.800 138.000 99.600 138.000 L 72.400 138.000 72.400 184.400 M335.600 184.600 L 335.600 231.200 345.600 231.200 L 355.600 231.200 355.600 184.600 L 355.600 138.000 345.600 138.000 L 335.600 138.000 335.600 184.600 M179.600 156.346 C 179.600 156.536,179.267 157.121,178.860 157.646 C 178.452 158.171,177.529 159.680,176.808 161.000 C 176.087 162.320,175.278 163.670,175.010 164.000 C 174.741 164.330,174.375 164.960,174.195 165.400 C 173.812 166.339,173.872 166.154,173.261 168.283 C 172.996 169.209,172.591 170.082,172.362 170.224 C 172.133 170.365,172.047 170.746,172.171 171.069 C 172.296 171.393,172.184 172.050,171.923 172.529 C 171.662 173.008,171.422 173.732,171.389 174.137 C 171.280 175.462,170.305 175.598,161.600 175.498 L 153.000 175.400 152.893 165.700 L 152.786 156.000 166.193 156.000 C 173.567 156.000,179.600 156.156,179.600 156.346 M170.994 193.452 C 171.353 193.810,171.548 194.359,171.428 194.673 C 171.307 194.986,171.484 195.662,171.820 196.174 C 172.156 196.687,172.386 197.263,172.331 197.453 C 172.275 197.644,172.462 198.219,172.746 198.731 C 173.030 199.243,173.152 199.949,173.017 200.299 C 172.883 200.649,172.936 201.040,173.135 201.168 C 173.335 201.296,174.159 202.660,174.968 204.200 C 175.776 205.740,177.053 207.990,177.806 209.200 C 179.728 212.290,179.783 212.438,179.158 212.834 C 178.355 213.343,153.311 213.304,152.996 212.794 C 152.696 212.308,152.735 193.629,153.037 193.140 C 153.470 192.440,170.274 192.731,170.994 193.452 " stroke="none" fill="#5c14ec" fill-rule="evenodd"></path><path id="path1" d="M213.000 135.200 C 212.845 135.451,213.729 135.600,215.376 135.600 C 216.859 135.600,218.000 135.426,218.000 135.200 C 218.000 134.978,216.941 134.800,215.624 134.800 C 214.317 134.800,213.136 134.980,213.000 135.200 M225.600 135.200 C 225.600 135.426,226.741 135.600,228.224 135.600 C 229.871 135.600,230.755 135.451,230.600 135.200 C 230.464 134.980,229.283 134.800,227.976 134.800 C 226.659 134.800,225.600 134.978,225.600 135.200 M209.200 136.000 C 209.200 136.220,209.830 136.400,210.600 136.400 C 211.370 136.400,212.000 136.220,212.000 136.000 C 212.000 135.780,211.370 135.600,210.600 135.600 C 209.830 135.600,209.200 135.780,209.200 136.000 M231.600 136.000 C 231.600 136.220,232.320 136.400,233.200 136.400 C 234.080 136.400,234.800 136.220,234.800 136.000 C 234.800 135.780,234.080 135.600,233.200 135.600 C 232.320 135.600,231.600 135.780,231.600 136.000 M42.800 184.400 L 42.800 232.400 54.400 232.400 L 66.000 232.400 66.000 184.400 L 66.000 136.400 54.400 136.400 L 42.800 136.400 42.800 184.400 M72.400 136.800 C 72.400 137.063,81.729 137.200,99.586 137.200 C 126.054 137.200,126.783 137.220,127.186 137.974 C 127.643 138.828,127.746 149.394,127.339 153.700 L 127.084 156.400 110.942 156.400 C 100.447 156.400,94.800 156.540,94.800 156.800 C 94.800 157.463,126.821 157.310,127.700 156.643 C 128.333 156.162,128.400 155.173,128.400 146.256 L 128.400 136.400 100.400 136.400 C 82.000 136.400,72.400 136.537,72.400 136.800 M130.800 184.400 L 130.800 232.400 158.400 232.400 C 180.213 232.400,186.000 232.295,186.000 231.900 C 186.000 231.505,180.370 231.400,159.185 231.400 C 137.546 231.400,132.308 231.299,132.048 230.877 C 131.461 229.928,131.601 138.097,132.190 137.608 C 132.543 137.315,140.990 137.217,159.351 137.292 C 180.462 137.377,186.000 137.296,186.000 136.900 C 186.000 136.505,180.213 136.400,158.400 136.400 L 130.800 136.400 130.800 184.400 M205.200 136.800 C 205.200 137.020,205.830 137.200,206.600 137.200 C 207.370 137.200,208.000 137.020,208.000 136.800 C 208.000 136.580,207.370 136.400,206.600 136.400 C 205.830 136.400,205.200 136.580,205.200 136.800 M236.000 136.800 C 236.000 137.020,236.630 137.200,237.400 137.200 C 238.170 137.200,238.800 137.020,238.800 136.800 C 238.800 136.580,238.170 136.400,237.400 136.400 C 236.630 136.400,236.000 136.580,236.000 136.800 M253.200 136.853 C 253.200 137.017,257.430 137.166,262.600 137.185 C 267.770 137.204,272.000 137.066,272.000 136.878 C 272.000 136.689,267.770 136.540,262.600 136.546 C 257.430 136.552,253.200 136.690,253.200 136.853 M273.400 136.800 C 272.274 137.087,272.305 137.108,273.900 137.153 L 275.600 137.200 275.600 155.600 C 275.600 167.600,275.739 174.000,276.000 174.000 C 276.839 174.000,276.514 137.827,275.669 137.062 C 275.266 136.698,274.861 136.421,274.769 136.447 C 274.676 136.473,274.060 136.632,273.400 136.800 M305.200 136.787 C 305.200 136.945,308.710 137.098,313.000 137.127 C 317.713 137.159,320.800 137.029,320.800 136.799 C 320.800 136.569,317.704 136.434,313.000 136.459 C 308.710 136.482,305.200 136.630,305.200 136.787 M323.400 136.843 C 322.142 137.034,322.434 137.099,324.767 137.143 C 326.398 137.174,327.598 137.065,327.433 136.900 C 327.070 136.537,325.555 136.516,323.400 136.843 M334.000 184.400 L 334.000 232.400 345.029 232.400 C 354.053 232.400,356.161 232.296,356.629 231.829 C 357.117 231.340,357.200 224.407,357.200 183.879 L 357.200 136.500 353.760 136.624 C 349.434 136.778,348.830 137.200,352.933 137.200 C 355.835 137.200,356.002 137.248,356.041 138.100 C 356.081 138.980,356.061 229.512,356.020 230.907 C 356.001 231.566,355.305 231.606,345.500 231.507 L 335.000 231.400 334.898 184.463 L 334.797 137.526 335.632 137.307 C 336.588 137.057,335.926 136.417,334.700 136.406 C 334.037 136.400,334.000 138.950,334.000 184.400 M336.938 136.900 C 336.836 137.065,338.473 137.200,340.576 137.200 C 342.679 137.200,344.400 137.044,344.400 136.854 C 344.400 136.433,337.200 136.477,336.938 136.900 M345.200 136.800 C 345.200 137.020,345.819 137.200,346.576 137.200 C 347.333 137.200,348.064 137.020,348.200 136.800 C 348.349 136.558,347.804 136.400,346.824 136.400 C 345.931 136.400,345.200 136.580,345.200 136.800 M64.567 137.443 C 65.596 137.838,65.529 231.180,64.500 231.243 C 60.518 231.490,44.881 231.504,44.492 231.260 C 43.937 230.914,43.623 138.534,44.173 137.643 C 44.466 137.169,63.369 136.983,64.567 137.443 M202.800 137.600 C 202.800 137.820,203.261 138.000,203.824 138.000 C 204.404 138.000,204.740 137.827,204.600 137.600 C 204.464 137.380,204.003 137.200,203.576 137.200 C 203.149 137.200,202.800 137.380,202.800 137.600 M239.200 137.600 C 239.200 137.820,239.650 138.000,240.200 138.000 C 240.750 138.000,241.200 137.820,241.200 137.600 C 241.200 137.380,240.750 137.200,240.200 137.200 C 239.650 137.200,239.200 137.380,239.200 137.600 M200.800 138.361 C 198.784 139.417,198.368 139.600,197.977 139.600 C 197.523 139.600,196.400 140.577,196.400 140.971 C 196.400 141.097,196.670 141.200,197.000 141.200 C 197.330 141.200,197.600 141.020,197.600 140.800 C 197.600 140.580,197.960 140.400,198.400 140.400 C 198.840 140.400,199.200 140.220,199.200 140.000 C 199.200 139.780,199.560 139.600,200.000 139.600 C 200.440 139.600,200.800 139.420,200.800 139.200 C 200.800 138.980,201.160 138.800,201.600 138.800 C 202.040 138.800,202.400 138.620,202.400 138.400 C 202.400 137.932,201.654 137.914,200.800 138.361 M241.600 138.400 C 241.600 138.620,242.050 138.800,242.600 138.800 C 243.150 138.800,243.600 138.980,243.600 139.200 C 243.600 139.420,243.960 139.600,244.400 139.600 C 244.840 139.600,245.200 139.420,245.200 139.200 C 245.200 138.980,244.840 138.800,244.400 138.800 C 243.960 138.800,243.600 138.620,243.600 138.400 C 243.600 138.180,243.150 138.000,242.600 138.000 C 242.050 138.000,241.600 138.180,241.600 138.400 M245.600 140.000 C 245.600 140.220,245.870 140.400,246.200 140.400 C 246.530 140.400,246.800 140.220,246.800 140.000 C 246.800 139.780,246.530 139.600,246.200 139.600 C 245.870 139.600,245.600 139.780,245.600 140.000 M247.290 140.871 C 247.507 141.520,248.702 142.231,249.028 141.905 C 249.355 141.578,248.234 140.400,247.595 140.400 C 247.341 140.400,247.204 140.612,247.290 140.871 M194.800 141.600 C 194.800 141.820,195.070 142.000,195.400 142.000 C 195.730 142.000,196.000 141.820,196.000 141.600 C 196.000 141.380,195.730 141.200,195.400 141.200 C 195.070 141.200,194.800 141.380,194.800 141.600 M191.600 143.200 C 191.050 143.847,190.369 144.381,190.087 144.388 C 189.459 144.403,186.634 147.167,186.937 147.470 C 187.220 147.754,189.600 146.058,189.600 145.573 C 189.600 145.368,189.884 145.200,190.231 145.200 C 190.578 145.200,191.402 144.660,192.062 144.000 C 192.722 143.340,193.518 142.800,193.831 142.800 C 194.144 142.800,194.400 142.620,194.400 142.400 C 194.400 141.552,192.552 142.080,191.600 143.200 M249.600 142.400 C 249.600 142.620,249.946 142.800,250.368 142.800 C 250.897 142.800,251.219 143.175,251.400 144.000 C 251.545 144.660,251.829 145.200,252.032 145.200 C 252.685 145.200,252.422 143.105,251.700 142.557 C 250.871 141.927,249.600 141.832,249.600 142.400 M250.800 146.200 C 250.800 146.530,250.980 146.800,251.200 146.800 C 251.420 146.800,251.600 146.530,251.600 146.200 C 251.600 145.870,251.420 145.600,251.200 145.600 C 250.980 145.600,250.800 145.870,250.800 146.200 M249.696 147.995 C 249.423 148.432,249.200 149.062,249.200 149.395 C 249.200 149.728,249.020 150.000,248.800 150.000 C 248.580 150.000,248.400 150.360,248.400 150.800 C 248.400 151.240,248.580 151.600,248.800 151.600 C 249.020 151.600,249.200 151.240,249.200 150.800 C 249.200 150.360,249.380 150.000,249.600 150.000 C 249.820 150.000,250.000 149.640,250.000 149.200 C 250.000 148.760,250.180 148.400,250.400 148.400 C 250.620 148.400,250.800 148.130,250.800 147.800 C 250.800 146.962,250.285 147.052,249.696 147.995 M72.191 180.800 C 72.191 198.510,72.240 205.755,72.300 196.900 C 72.360 188.045,72.360 173.555,72.300 164.700 C 72.240 155.845,72.191 163.090,72.191 180.800 M247.600 152.600 C 247.600 152.930,247.780 153.200,248.000 153.200 C 248.220 153.200,248.400 152.930,248.400 152.600 C 248.400 152.270,248.220 152.000,248.000 152.000 C 247.780 152.000,247.600 152.270,247.600 152.600 M246.800 154.200 C 246.800 154.530,246.980 154.800,247.200 154.800 C 247.420 154.800,247.600 154.530,247.600 154.200 C 247.600 153.870,247.420 153.600,247.200 153.600 C 246.980 153.600,246.800 153.870,246.800 154.200 M246.000 155.800 C 246.000 156.130,246.180 156.400,246.400 156.400 C 246.620 156.400,246.800 156.130,246.800 155.800 C 246.800 155.470,246.620 155.200,246.400 155.200 C 246.180 155.200,246.000 155.470,246.000 155.800 M153.200 165.600 L 153.200 174.800 161.367 174.800 C 165.859 174.800,169.819 174.691,170.167 174.557 C 170.852 174.294,171.057 172.400,170.400 172.400 C 170.180 172.400,170.000 172.760,170.000 173.200 C 170.000 173.973,169.733 174.000,162.000 174.000 L 154.000 174.000 154.000 165.584 L 154.000 157.168 166.046 157.218 C 174.229 157.251,178.232 157.128,178.526 156.834 C 178.838 156.522,175.331 156.400,166.080 156.400 L 153.200 156.400 153.200 165.600 M223.400 156.800 C 223.536 157.020,223.907 157.200,224.224 157.200 C 224.541 157.200,224.800 157.020,224.800 156.800 C 224.800 156.580,224.429 156.400,223.976 156.400 C 223.523 156.400,223.264 156.580,223.400 156.800 M215.694 157.129 C 215.196 157.199,214.891 157.424,215.018 157.629 C 215.312 158.105,219.600 158.118,219.600 157.642 C 219.600 157.249,217.131 156.925,215.694 157.129 M244.896 157.595 C 244.623 158.032,244.400 158.662,244.400 158.995 C 244.400 159.328,244.220 159.600,244.000 159.600 C 243.780 159.600,243.600 159.960,243.600 160.400 C 243.600 160.840,243.780 161.200,244.000 161.200 C 244.220 161.200,244.400 160.840,244.400 160.400 C 244.400 159.960,244.580 159.600,244.800 159.600 C 245.020 159.600,245.200 159.240,245.200 158.800 C 245.200 158.360,245.380 158.000,245.600 158.000 C 245.820 158.000,246.000 157.730,246.000 157.400 C 246.000 156.562,245.485 156.652,244.896 157.595 M227.800 157.600 C 227.936 157.820,228.847 158.000,229.824 158.000 C 230.801 158.000,231.600 157.820,231.600 157.600 C 231.600 157.380,230.689 157.200,229.576 157.200 C 228.329 157.200,227.648 157.353,227.800 157.600 M176.400 158.600 C 176.400 158.930,176.580 159.200,176.800 159.200 C 177.020 159.200,177.200 158.930,177.200 158.600 C 177.200 158.270,177.020 158.000,176.800 158.000 C 176.580 158.000,176.400 158.270,176.400 158.600 M212.000 158.400 C 212.000 158.620,212.259 158.800,212.576 158.800 C 212.893 158.800,213.264 158.620,213.400 158.400 C 213.536 158.180,213.277 158.000,212.824 158.000 C 212.371 158.000,212.000 158.180,212.000 158.400 M232.400 158.400 C 232.400 158.620,232.760 158.800,233.200 158.800 C 233.640 158.800,234.000 158.620,234.000 158.400 C 234.000 158.180,233.640 158.000,233.200 158.000 C 232.760 158.000,232.400 158.180,232.400 158.400 M210.000 159.200 C 210.000 159.420,209.685 159.606,209.300 159.613 C 207.984 159.637,206.507 161.200,207.800 161.200 C 208.130 161.200,208.400 161.020,208.400 160.800 C 208.400 160.580,208.760 160.400,209.200 160.400 C 209.640 160.400,210.000 160.220,210.000 160.000 C 210.000 159.780,210.360 159.600,210.800 159.600 C 211.240 159.600,211.600 159.420,211.600 159.200 C 211.600 158.980,211.240 158.800,210.800 158.800 C 210.360 158.800,210.000 158.980,210.000 159.200 M234.800 159.200 C 234.800 159.420,235.160 159.600,235.600 159.600 C 236.040 159.600,236.400 159.780,236.400 160.000 C 236.400 160.220,236.760 160.400,237.200 160.400 C 237.640 160.400,238.000 160.580,238.000 160.800 C 238.000 161.020,238.360 161.200,238.800 161.200 C 239.240 161.200,239.600 161.380,239.600 161.600 C 239.600 161.820,239.870 162.000,240.200 162.000 C 241.493 162.000,240.016 160.437,238.700 160.413 C 238.315 160.406,237.999 160.265,237.997 160.100 C 237.993 159.741,236.056 158.800,235.320 158.800 C 235.034 158.800,234.800 158.980,234.800 159.200 M175.600 160.200 C 175.600 160.530,175.780 160.800,176.000 160.800 C 176.220 160.800,176.400 160.530,176.400 160.200 C 176.400 159.870,176.220 159.600,176.000 159.600 C 175.780 159.600,175.600 159.870,175.600 160.200 M174.500 161.798 C 174.225 162.111,174.000 162.644,174.000 162.983 C 174.000 163.322,173.820 163.600,173.600 163.600 C 173.380 163.600,173.200 163.870,173.200 164.200 C 173.200 164.530,173.380 164.800,173.600 164.800 C 173.820 164.800,174.000 164.530,174.000 164.200 C 174.000 163.870,174.180 163.600,174.400 163.600 C 174.620 163.600,174.800 163.330,174.800 163.000 C 174.800 162.670,174.980 162.400,175.200 162.400 C 175.420 162.400,175.600 162.130,175.600 161.800 C 175.600 161.054,175.156 161.053,174.500 161.798 M205.600 161.600 C 205.600 161.820,205.330 162.000,205.000 162.000 C 204.670 162.000,204.400 162.180,204.400 162.400 C 204.400 162.620,204.265 162.800,204.099 162.800 C 203.609 162.800,198.000 168.280,198.000 168.759 C 198.000 169.545,198.386 169.249,201.600 166.000 C 203.341 164.240,204.966 162.800,205.211 162.800 C 205.674 162.800,206.800 161.828,206.800 161.429 C 206.800 161.303,206.530 161.200,206.200 161.200 C 205.870 161.200,205.600 161.380,205.600 161.600 M242.100 161.711 C 240.839 162.287,240.980 162.800,242.400 162.800 C 243.178 162.800,243.600 162.597,243.600 162.224 C 243.600 161.399,243.132 161.239,242.100 161.711 M172.400 166.000 C 172.400 166.440,172.220 166.800,172.000 166.800 C 171.780 166.800,171.600 167.340,171.600 168.000 C 171.600 168.660,171.780 169.200,172.000 169.200 C 172.220 169.200,172.400 168.660,172.400 168.000 C 172.400 167.340,172.580 166.800,172.800 166.800 C 173.020 166.800,173.200 166.440,173.200 166.000 C 173.200 165.560,173.020 165.200,172.800 165.200 C 172.580 165.200,172.400 165.560,172.400 166.000 M197.200 170.200 C 197.200 170.530,197.380 170.800,197.600 170.800 C 197.820 170.800,198.000 170.530,198.000 170.200 C 198.000 169.870,197.820 169.600,197.600 169.600 C 197.380 169.600,197.200 169.870,197.200 170.200 M170.800 171.000 C 170.800 171.550,170.980 172.000,171.200 172.000 C 171.420 172.000,171.600 171.550,171.600 171.000 C 171.600 170.450,171.420 170.000,171.200 170.000 C 170.980 170.000,170.800 170.450,170.800 171.000 M196.278 171.456 C 195.958 171.775,196.319 172.400,196.824 172.400 C 197.031 172.400,197.200 172.130,197.200 171.800 C 197.200 171.181,196.728 171.005,196.278 171.456 M195.600 173.200 C 195.600 173.640,195.420 174.000,195.200 174.000 C 194.980 174.000,194.800 174.360,194.800 174.800 C 194.800 175.240,194.980 175.600,195.200 175.600 C 195.420 175.600,195.600 175.240,195.600 174.800 C 195.600 174.360,195.780 174.000,196.000 174.000 C 196.220 174.000,196.400 173.640,196.400 173.200 C 196.400 172.760,196.220 172.400,196.000 172.400 C 195.780 172.400,195.600 172.760,195.600 173.200 M94.800 174.400 C 94.800 174.660,100.133 174.800,110.000 174.800 C 119.867 174.800,125.200 174.660,125.200 174.400 C 125.200 174.140,119.867 174.000,110.000 174.000 C 100.133 174.000,94.800 174.140,94.800 174.400 M194.000 177.200 C 194.000 177.640,194.180 178.000,194.400 178.000 C 194.620 178.000,194.800 177.640,194.800 177.200 C 194.800 176.760,194.620 176.400,194.400 176.400 C 194.180 176.400,194.000 176.760,194.000 177.200 M125.200 186.200 C 125.200 190.563,125.322 194.012,125.471 193.863 C 125.812 193.521,125.795 178.862,125.453 178.520 C 125.314 178.381,125.200 181.837,125.200 186.200 M193.200 181.224 C 193.200 182.737,193.350 183.554,193.600 183.400 C 193.820 183.264,194.000 182.173,194.000 180.976 C 194.000 179.779,193.820 178.800,193.600 178.800 C 193.377 178.800,193.200 179.875,193.200 181.224 M193.200 186.976 C 193.200 188.199,193.380 189.200,193.600 189.200 C 193.820 189.200,194.000 188.311,194.000 187.224 C 194.000 186.137,193.820 185.136,193.600 185.000 C 193.352 184.847,193.200 185.596,193.200 186.976 M194.000 191.000 C 194.000 191.550,194.180 192.000,194.400 192.000 C 194.620 192.000,194.800 191.550,194.800 191.000 C 194.800 190.450,194.620 190.000,194.400 190.000 C 194.180 190.000,194.000 190.450,194.000 191.000 M194.800 193.200 C 194.800 193.640,194.980 194.000,195.200 194.000 C 195.420 194.000,195.600 194.234,195.600 194.520 C 195.600 195.256,196.541 197.193,196.900 197.197 C 197.065 197.199,197.200 197.560,197.200 198.000 C 197.200 198.440,197.380 198.800,197.600 198.800 C 197.820 198.800,198.000 199.030,198.000 199.312 C 198.000 199.593,198.360 200.083,198.800 200.400 C 199.240 200.717,199.600 201.130,199.600 201.317 C 199.600 201.696,200.617 202.800,200.967 202.800 C 201.439 202.800,202.800 204.202,202.800 204.689 C 202.800 204.970,203.030 205.200,203.312 205.200 C 203.593 205.200,204.083 205.560,204.400 206.000 C 204.928 206.732,206.000 207.115,206.000 206.571 C 206.000 206.200,205.054 205.376,204.300 205.090 C 203.915 204.944,203.600 204.615,203.600 204.359 C 203.600 203.805,201.587 202.001,200.968 202.000 C 200.730 202.000,200.281 201.505,199.970 200.900 C 199.660 200.295,199.089 199.509,198.703 199.153 C 198.316 198.797,198.000 198.212,198.000 197.853 C 198.000 197.494,197.820 197.200,197.600 197.200 C 197.380 197.200,197.200 196.840,197.200 196.400 C 197.200 195.960,197.020 195.600,196.800 195.600 C 196.580 195.600,196.400 195.240,196.400 194.800 C 196.400 194.360,196.220 194.000,196.000 194.000 C 195.780 194.000,195.600 193.640,195.600 193.200 C 195.600 192.760,195.420 192.400,195.200 192.400 C 194.980 192.400,194.800 192.760,194.800 193.200 M275.600 212.400 L 275.600 231.600 264.400 231.600 C 257.200 231.600,253.200 231.743,253.200 232.000 C 253.200 232.806,275.225 232.515,275.843 231.700 C 276.267 231.142,276.377 227.249,276.387 212.500 L 276.400 194.000 290.800 194.000 C 300.133 194.000,305.200 193.859,305.200 193.600 C 305.200 193.341,300.000 193.200,290.400 193.200 L 275.600 193.200 275.600 212.400 M153.293 203.300 L 153.400 212.600 166.100 212.639 C 176.506 212.671,178.800 212.581,178.800 212.139 C 178.800 211.843,178.620 211.600,178.400 211.600 C 178.180 211.600,178.000 211.330,178.000 211.000 C 178.000 210.670,177.854 210.400,177.675 210.400 C 177.496 210.400,177.102 209.770,176.800 209.000 C 176.498 208.230,176.104 207.600,175.925 207.600 C 175.746 207.600,175.600 207.330,175.600 207.000 C 175.600 206.670,175.465 206.399,175.300 206.399 C 175.135 206.398,174.550 205.408,174.000 204.200 C 173.450 202.992,172.865 202.002,172.700 202.001 C 172.535 202.001,172.400 201.370,172.400 200.600 C 172.400 199.830,172.220 199.200,172.000 199.200 C 171.780 199.200,171.600 199.729,171.600 200.376 C 171.600 201.023,171.780 201.664,172.000 201.800 C 172.220 201.936,172.400 202.397,172.400 202.824 C 172.400 203.251,172.538 203.600,172.706 203.600 C 172.874 203.600,173.313 204.296,173.682 205.147 C 174.050 205.999,174.588 206.951,174.876 207.263 C 175.678 208.132,176.400 209.521,176.400 210.195 C 176.400 210.528,176.580 210.800,176.800 210.800 C 177.020 210.800,177.200 210.980,177.200 211.200 C 177.200 211.457,173.067 211.600,165.600 211.600 L 154.000 211.600 154.000 202.800 C 154.000 197.094,153.857 194.000,153.593 194.000 C 153.325 194.000,153.222 197.184,153.293 203.300 M170.000 194.776 C 170.000 195.203,170.180 195.664,170.400 195.800 C 170.627 195.940,170.800 195.604,170.800 195.024 C 170.800 194.461,170.620 194.000,170.400 194.000 C 170.180 194.000,170.000 194.349,170.000 194.776 M170.800 197.576 C 170.800 198.003,170.980 198.464,171.200 198.600 C 171.427 198.740,171.600 198.404,171.600 197.824 C 171.600 197.261,171.420 196.800,171.200 196.800 C 170.980 196.800,170.800 197.149,170.800 197.576 M240.797 206.089 C 240.377 206.480,239.863 206.800,239.655 206.800 C 239.329 206.800,237.870 207.457,235.105 208.850 C 234.723 209.043,234.138 209.200,233.805 209.200 C 233.472 209.200,233.200 209.380,233.200 209.600 C 233.200 209.820,233.560 210.000,234.000 210.000 C 234.440 210.000,234.800 209.820,234.800 209.600 C 234.800 209.380,235.250 209.200,235.800 209.200 C 236.350 209.200,236.800 209.020,236.800 208.800 C 236.800 208.580,237.160 208.400,237.600 208.400 C 238.040 208.400,238.400 208.220,238.400 208.000 C 238.400 207.780,238.816 207.600,239.325 207.600 C 239.833 207.600,240.639 207.236,241.117 206.792 C 242.238 205.747,242.832 206.288,244.760 210.106 C 246.060 212.682,246.800 213.453,246.800 212.233 C 246.800 211.922,246.665 211.607,246.500 211.533 C 246.078 211.346,243.600 206.402,243.600 205.748 C 243.600 204.988,241.735 205.214,240.797 206.089 M206.400 207.200 C 206.400 207.420,206.760 207.600,207.200 207.600 C 207.640 207.600,208.000 207.780,208.000 208.000 C 208.000 208.220,208.270 208.400,208.600 208.400 C 209.396 208.400,209.359 208.009,208.500 207.357 C 207.671 206.727,206.400 206.632,206.400 207.200 M209.600 208.800 C 209.600 209.020,209.971 209.200,210.424 209.200 C 210.877 209.200,211.136 209.020,211.000 208.800 C 210.864 208.580,210.493 208.400,210.176 208.400 C 209.859 208.400,209.600 208.580,209.600 208.800 M211.600 209.600 C 211.600 209.820,211.960 210.000,212.400 210.000 C 212.840 210.000,213.200 209.820,213.200 209.600 C 213.200 209.380,212.840 209.200,212.400 209.200 C 211.960 209.200,211.600 209.380,211.600 209.600 M213.600 210.400 C 213.600 210.620,214.230 210.800,215.000 210.800 C 215.770 210.800,216.400 210.620,216.400 210.400 C 216.400 210.180,215.770 210.000,215.000 210.000 C 214.230 210.000,213.600 210.180,213.600 210.400 M230.200 210.400 C 230.056 210.633,230.463 210.800,231.176 210.800 C 231.849 210.800,232.400 210.620,232.400 210.400 C 232.400 210.180,231.961 210.000,231.424 210.000 C 230.887 210.000,230.336 210.180,230.200 210.400 M217.600 211.200 C 217.600 211.448,219.792 211.600,223.376 211.600 C 226.796 211.600,229.254 211.437,229.400 211.200 C 229.561 210.940,227.537 210.800,223.624 210.800 C 219.875 210.800,217.600 210.951,217.600 211.200 M246.800 213.800 C 246.800 214.130,246.980 214.400,247.200 214.400 C 247.420 214.400,247.600 214.130,247.600 213.800 C 247.600 213.470,247.420 213.200,247.200 213.200 C 246.980 213.200,246.800 213.470,246.800 213.800 M247.600 215.800 C 247.600 216.350,247.780 216.800,248.000 216.800 C 248.220 216.800,248.400 217.070,248.400 217.400 C 248.400 217.730,248.580 218.000,248.800 218.000 C 249.020 218.000,249.200 218.252,249.200 218.559 C 249.200 218.867,249.726 220.118,250.368 221.339 C 251.457 223.410,251.636 225.200,250.753 225.200 C 250.559 225.200,250.400 225.380,250.400 225.600 C 250.400 226.182,251.168 226.090,251.829 225.429 C 252.478 224.779,252.607 222.800,252.000 222.800 C 251.780 222.800,251.600 222.440,251.600 222.000 C 251.600 221.560,251.420 221.200,251.200 221.200 C 250.980 221.200,250.800 220.840,250.800 220.400 C 250.800 219.960,250.620 219.600,250.400 219.600 C 250.180 219.600,250.000 219.240,250.000 218.800 C 250.000 218.360,249.865 217.999,249.700 217.997 C 249.341 217.993,248.400 216.056,248.400 215.320 C 248.400 215.034,248.220 214.800,248.000 214.800 C 247.780 214.800,247.600 215.250,247.600 215.800 M186.000 220.182 C 186.000 220.977,188.669 223.600,189.478 223.600 C 189.765 223.600,190.000 223.780,190.000 224.000 C 190.000 224.220,190.272 224.400,190.604 224.400 C 190.936 224.400,191.772 224.940,192.463 225.600 C 193.154 226.260,193.962 226.800,194.259 226.800 C 194.557 226.800,194.800 226.980,194.800 227.200 C 194.800 227.420,195.160 227.600,195.600 227.600 C 196.040 227.600,196.400 227.780,196.400 228.000 C 196.400 228.220,196.760 228.400,197.200 228.400 C 198.442 228.400,198.145 227.806,196.600 227.200 C 195.830 226.898,195.200 226.504,195.200 226.325 C 195.200 226.146,194.949 226.000,194.642 226.000 C 194.336 226.000,193.507 225.460,192.800 224.800 C 192.093 224.140,191.264 223.600,190.958 223.600 C 190.651 223.600,190.400 223.420,190.400 223.200 C 190.400 222.980,190.144 222.800,189.831 222.800 C 189.518 222.800,188.528 222.051,187.631 221.136 C 186.428 219.909,186.000 219.659,186.000 220.182 M248.800 226.400 C 248.800 226.620,248.530 226.800,248.200 226.800 C 247.870 226.800,247.600 226.980,247.600 227.200 C 247.600 227.420,247.150 227.600,246.600 227.600 C 246.050 227.600,245.600 227.780,245.600 228.000 C 245.600 228.220,246.050 228.400,246.600 228.400 C 247.150 228.400,247.600 228.220,247.600 228.000 C 247.600 227.780,247.883 227.600,248.229 227.600 C 248.835 227.600,250.000 226.698,250.000 226.229 C 250.000 226.103,249.730 226.000,249.400 226.000 C 249.070 226.000,248.800 226.180,248.800 226.400 M198.600 228.800 C 198.736 229.020,199.107 229.200,199.424 229.200 C 199.741 229.200,200.000 229.020,200.000 228.800 C 200.000 228.580,199.629 228.400,199.176 228.400 C 198.723 228.400,198.464 228.580,198.600 228.800 M244.000 228.800 C 244.000 229.020,244.270 229.200,244.600 229.200 C 244.930 229.200,245.200 229.020,245.200 228.800 C 245.200 228.580,244.930 228.400,244.600 228.400 C 244.270 228.400,244.000 228.580,244.000 228.800 M200.400 229.600 C 200.400 229.820,200.760 230.000,201.200 230.000 C 201.640 230.000,202.000 230.180,202.000 230.400 C 202.000 230.620,202.450 230.800,203.000 230.800 C 203.550 230.800,204.000 230.620,204.000 230.400 C 204.000 230.180,203.651 230.000,203.224 230.000 C 202.797 230.000,202.336 229.820,202.200 229.600 C 202.064 229.380,201.603 229.200,201.176 229.200 C 200.749 229.200,200.400 229.380,200.400 229.600 M242.000 229.600 C 242.000 229.820,241.561 230.000,241.024 230.000 C 240.487 230.000,239.936 230.180,239.800 230.400 C 239.664 230.620,239.023 230.800,238.376 230.800 C 237.729 230.800,237.200 230.980,237.200 231.200 C 237.200 231.420,237.639 231.600,238.176 231.600 C 238.713 231.600,239.264 231.420,239.400 231.200 C 239.536 230.980,240.076 230.800,240.600 230.800 C 241.124 230.800,241.664 230.620,241.800 230.400 C 241.936 230.180,242.397 230.000,242.824 230.000 C 243.251 230.000,243.600 229.820,243.600 229.600 C 243.600 229.380,243.240 229.200,242.800 229.200 C 242.360 229.200,242.000 229.380,242.000 229.600 M204.400 231.200 C 204.400 231.420,204.850 231.600,205.400 231.600 C 205.950 231.600,206.400 231.420,206.400 231.200 C 206.400 230.980,205.950 230.800,205.400 230.800 C 204.850 230.800,204.400 230.980,204.400 231.200 M72.400 231.900 C 72.400 232.288,74.907 232.400,83.600 232.400 C 92.430 232.400,94.800 232.292,94.800 231.888 C 94.800 231.484,92.437 231.379,83.600 231.388 C 74.913 231.397,72.400 231.512,72.400 231.900 M206.800 232.000 C 206.800 232.220,207.250 232.400,207.800 232.400 C 208.350 232.400,208.800 232.220,208.800 232.000 C 208.800 231.780,208.350 231.600,207.800 231.600 C 207.250 231.600,206.800 231.780,206.800 232.000 M233.600 232.000 C 233.600 232.220,234.129 232.400,234.776 232.400 C 235.423 232.400,236.064 232.220,236.200 232.000 C 236.347 231.762,235.871 231.600,235.024 231.600 C 234.241 231.600,233.600 231.780,233.600 232.000 M305.200 232.000 C 305.200 232.257,309.125 232.400,316.176 232.400 C 323.063 232.400,327.245 232.251,327.400 232.000 C 327.563 231.737,323.804 231.600,316.424 231.600 C 309.208 231.600,305.200 231.743,305.200 232.000 M210.000 232.800 C 210.000 233.026,211.133 233.200,212.600 233.200 C 214.067 233.200,215.200 233.026,215.200 232.800 C 215.200 232.574,214.067 232.400,212.600 232.400 C 211.133 232.400,210.000 232.574,210.000 232.800 M226.200 232.800 C 226.336 233.020,227.787 233.200,229.424 233.200 C 231.141 233.200,232.400 233.031,232.400 232.800 C 232.400 232.566,231.059 232.400,229.176 232.400 C 227.129 232.400,226.043 232.546,226.200 232.800 " stroke="none" fill="#a179f4" fill-rule="evenodd"></path><path id="path2" d="M220.000 135.171 C 220.000 135.375,219.685 135.624,219.300 135.724 C 218.915 135.825,220.040 135.901,221.800 135.894 C 223.560 135.886,224.505 135.805,223.900 135.713 C 223.295 135.622,222.800 135.379,222.800 135.173 C 222.800 134.968,222.170 134.800,221.400 134.800 C 220.630 134.800,220.000 134.967,220.000 135.171 M212.267 136.169 C 212.147 136.482,211.633 136.817,211.124 136.915 C 210.259 137.080,210.254 137.095,211.056 137.146 C 211.526 137.175,212.336 136.846,212.856 136.413 C 213.598 135.795,213.659 135.624,213.143 135.613 C 212.781 135.606,212.387 135.856,212.267 136.169 M230.143 136.200 C 230.473 136.530,230.840 136.800,230.959 136.800 C 231.078 136.800,231.071 136.530,230.945 136.200 C 230.818 135.870,230.451 135.600,230.129 135.600 C 229.621 135.600,229.622 135.680,230.143 136.200 M215.705 136.287 C 216.314 136.379,217.214 136.377,217.705 136.282 C 218.197 136.187,217.700 136.111,216.600 136.114 C 215.500 136.117,215.097 136.195,215.705 136.287 M225.900 136.282 C 226.395 136.378,227.205 136.378,227.700 136.282 C 228.195 136.187,227.790 136.109,226.800 136.109 C 225.810 136.109,225.405 136.187,225.900 136.282 M208.255 137.000 C 208.129 137.330,207.629 137.600,207.146 137.600 C 206.662 137.600,206.374 137.707,206.505 137.838 C 206.915 138.248,209.122 137.580,209.354 136.976 C 209.480 136.648,209.340 136.400,209.030 136.400 C 208.731 136.400,208.382 136.670,208.255 137.000 M234.246 136.976 C 234.478 137.580,236.685 138.248,237.095 137.838 C 237.226 137.707,236.938 137.600,236.454 137.600 C 235.971 137.600,235.471 137.330,235.345 137.000 C 235.218 136.670,234.869 136.400,234.570 136.400 C 234.260 136.400,234.120 136.648,234.246 136.976 M204.701 137.991 C 203.982 138.830,204.196 139.044,205.149 138.440 C 205.451 138.249,205.629 137.888,205.546 137.637 C 205.454 137.361,205.120 137.501,204.701 137.991 M238.000 137.586 C 238.000 137.798,238.348 138.158,238.774 138.386 C 239.946 139.013,240.086 138.886,239.200 138.000 C 238.315 137.115,238.000 137.006,238.000 137.586 M44.000 184.400 L 44.000 231.200 54.400 231.200 L 64.800 231.200 64.800 184.400 L 64.800 137.600 54.400 137.600 L 44.000 137.600 44.000 184.400 M99.492 137.900 L 126.785 138.006 126.900 147.103 L 127.016 156.200 127.108 146.900 L 127.200 137.600 99.700 137.697 L 72.200 137.794 99.492 137.900 M132.000 184.400 L 132.000 231.200 159.029 231.200 L 186.057 231.200 185.958 225.010 C 185.876 219.928,185.764 218.898,185.329 219.259 C 184.937 219.584,184.800 221.132,184.800 225.249 L 184.800 230.800 158.600 230.800 L 132.400 230.800 132.400 184.400 L 132.400 138.000 158.600 138.000 L 184.800 138.000 184.800 143.124 C 184.800 149.608,185.235 150.542,187.278 148.441 L 188.600 147.081 187.300 147.968 C 186.585 148.455,185.991 148.707,185.980 148.527 C 185.968 148.347,185.977 145.815,185.999 142.900 L 186.038 137.600 159.019 137.600 L 132.000 137.600 132.000 184.400 M253.200 184.400 C 253.200 225.733,253.270 231.200,253.800 231.200 C 254.330 231.200,254.400 225.756,254.400 184.607 L 254.400 138.013 265.100 137.900 L 275.800 137.786 264.500 137.693 L 253.200 137.600 253.200 184.400 M310.076 137.899 C 312.868 137.967,317.548 137.968,320.476 137.899 C 323.404 137.831,321.120 137.775,315.400 137.774 C 309.680 137.774,307.284 137.830,310.076 137.899 M335.298 184.500 L 335.400 231.400 345.600 231.400 L 355.800 231.400 355.902 184.500 L 356.003 137.600 345.600 137.600 L 335.197 137.600 335.298 184.500 M64.400 184.400 L 64.400 230.800 54.400 230.800 L 44.400 230.800 44.400 184.400 L 44.400 138.000 54.400 138.000 L 64.400 138.000 64.400 184.400 M355.600 184.600 L 355.600 231.200 345.600 231.200 L 335.600 231.200 335.600 184.600 L 335.600 138.000 345.600 138.000 L 355.600 138.000 355.600 184.600 M240.576 138.761 C 240.916 139.311,243.200 140.024,243.200 139.579 C 243.200 139.371,242.851 139.200,242.424 139.200 C 241.997 139.200,241.536 139.020,241.400 138.800 C 241.264 138.580,240.973 138.400,240.753 138.400 C 240.533 138.400,240.453 138.562,240.576 138.761 M201.000 139.600 C 200.864 139.820,200.403 140.000,199.976 140.000 C 199.549 140.000,199.200 140.182,199.200 140.405 C 199.200 140.641,199.820 140.552,200.679 140.193 C 202.445 139.455,202.756 139.200,201.890 139.200 C 201.537 139.200,201.136 139.380,201.000 139.600 M275.382 155.200 C 275.382 163.670,275.435 167.135,275.499 162.900 C 275.564 158.665,275.564 151.735,275.499 147.500 C 275.435 143.265,275.382 146.730,275.382 155.200 M246.600 141.547 C 247.260 141.956,247.877 142.223,247.971 142.141 C 248.248 141.899,246.654 140.826,246.000 140.815 C 245.670 140.809,245.940 141.139,246.600 141.547 M248.400 142.590 C 248.400 142.694,248.949 143.063,249.620 143.411 C 250.580 143.907,250.784 144.219,250.578 144.871 C 250.401 145.426,250.461 145.610,250.757 145.426 C 251.624 144.891,251.204 143.660,249.939 143.029 C 248.576 142.350,248.400 142.299,248.400 142.590 M192.500 143.798 C 191.754 144.646,191.896 145.014,192.700 144.314 C 193.085 143.979,193.670 143.605,194.000 143.484 C 194.425 143.328,194.366 143.258,193.800 143.247 C 193.360 143.238,192.775 143.486,192.500 143.798 M190.500 145.344 C 190.005 145.589,189.600 145.927,189.600 146.095 C 189.600 146.648,190.264 146.413,191.000 145.600 C 191.801 144.715,191.786 144.707,190.500 145.344 M94.217 156.372 C 94.091 156.577,94.170 156.858,94.393 156.996 C 94.617 157.134,94.800 157.070,94.800 156.853 C 94.800 156.636,95.115 156.376,95.500 156.276 C 96.041 156.134,96.000 156.082,95.324 156.046 C 94.842 156.021,94.344 156.168,94.217 156.372 M104.100 156.299 C 108.225 156.364,114.975 156.364,119.100 156.299 C 123.225 156.234,119.850 156.181,111.600 156.181 C 103.350 156.181,99.975 156.234,104.100 156.299 M163.923 156.299 C 166.631 156.368,170.951 156.368,173.523 156.299 C 176.095 156.229,173.880 156.172,168.600 156.173 C 163.320 156.173,161.215 156.230,163.923 156.299 M178.468 157.255 C 177.955 157.888,177.595 158.580,177.668 158.794 C 177.740 159.008,178.231 158.553,178.758 157.782 C 179.939 156.055,179.738 155.689,178.468 157.255 M220.000 156.600 C 220.000 156.930,220.270 157.200,220.600 157.200 C 220.930 157.200,221.200 157.033,221.200 156.829 C 221.200 156.625,221.515 156.376,221.900 156.276 C 222.285 156.175,222.015 156.072,221.300 156.046 C 220.390 156.014,220.000 156.180,220.000 156.600 M226.800 156.600 C 227.074 156.930,227.450 157.200,227.636 157.200 C 227.823 157.200,227.871 156.930,227.745 156.600 C 227.618 156.270,227.242 156.000,226.908 156.000 C 226.415 156.000,226.395 156.112,226.800 156.600 M215.300 156.676 C 215.685 156.776,216.315 156.776,216.700 156.676 C 217.085 156.575,216.770 156.493,216.000 156.493 C 215.230 156.493,214.915 156.575,215.300 156.676 M213.600 157.243 C 213.600 157.486,213.321 157.578,212.979 157.447 C 212.623 157.311,212.463 157.378,212.603 157.605 C 212.971 158.200,213.884 158.079,214.145 157.400 C 214.271 157.070,214.201 156.800,213.987 156.800 C 213.774 156.800,213.600 156.999,213.600 157.243 M232.000 157.413 C 232.000 158.060,232.625 158.207,232.974 157.642 C 233.096 157.445,232.926 157.181,232.598 157.054 C 232.235 156.915,232.000 157.056,232.000 157.413 M236.180 158.368 C 236.504 158.892,238.800 160.010,238.800 159.643 C 238.800 159.481,238.157 159.042,237.372 158.667 C 236.587 158.293,236.050 158.158,236.180 158.368 M206.794 160.018 C 206.247 160.439,205.980 160.780,206.200 160.778 C 206.729 160.773,208.191 159.658,207.965 159.431 C 207.868 159.334,207.341 159.598,206.794 160.018 M242.583 160.827 C 242.438 161.062,242.022 161.142,241.660 161.004 C 241.156 160.812,241.110 160.864,241.466 161.223 C 241.823 161.582,242.149 161.541,242.855 161.046 C 243.363 160.691,243.569 160.400,243.313 160.400 C 243.057 160.400,242.728 160.592,242.583 160.827 M204.344 161.590 L 203.400 162.381 204.497 161.890 C 205.100 161.621,205.595 161.265,205.597 161.100 C 205.602 160.641,205.371 160.731,204.344 161.590 M174.937 163.404 C 174.683 163.952,174.637 164.301,174.835 164.178 C 175.363 163.852,176.082 162.399,175.714 162.403 C 175.541 162.405,175.192 162.855,174.937 163.404 M200.121 165.093 C 198.764 166.575,197.720 167.854,197.802 167.936 C 197.884 168.018,198.367 167.646,198.876 167.111 C 199.384 166.575,200.602 165.296,201.583 164.268 C 202.564 163.241,203.192 162.400,202.978 162.400 C 202.764 162.400,201.478 163.612,200.121 165.093 M172.800 168.200 C 172.800 168.750,172.869 169.200,172.953 169.200 C 173.038 169.200,173.193 168.750,173.298 168.200 C 173.403 167.650,173.334 167.200,173.145 167.200 C 172.955 167.200,172.800 167.650,172.800 168.200 M171.600 170.249 C 171.600 170.780,171.709 170.808,172.200 170.400 C 172.530 170.126,172.800 169.834,172.800 169.751 C 172.800 169.668,172.530 169.600,172.200 169.600 C 171.870 169.600,171.600 169.892,171.600 170.249 M196.261 170.186 C 195.956 170.981,196.140 171.363,196.721 171.142 C 196.926 171.064,196.968 170.653,196.816 170.229 C 196.554 169.497,196.526 169.495,196.261 170.186 M275.246 174.100 L 275.200 175.200 290.400 175.200 C 303.749 175.200,305.600 175.126,305.600 174.591 C 305.600 174.054,303.819 173.994,290.610 174.091 C 277.562 174.186,275.599 174.122,275.456 173.600 C 275.366 173.270,275.272 173.495,275.246 174.100 M170.884 174.415 C 170.393 175.200,170.059 175.225,161.625 175.115 C 156.813 175.052,152.959 175.135,153.061 175.300 C 153.164 175.465,157.094 175.600,161.795 175.600 C 170.483 175.600,171.600 175.414,171.600 173.971 C 171.600 173.418,171.447 173.513,170.884 174.415 M193.893 175.166 C 193.748 175.719,193.864 176.000,194.237 176.000 C 194.875 176.000,194.942 175.644,194.449 174.866 C 194.192 174.460,194.059 174.532,193.893 175.166 M102.300 175.499 C 106.535 175.564,113.465 175.564,117.700 175.499 C 121.935 175.435,118.470 175.382,110.000 175.382 C 101.530 175.382,98.065 175.435,102.300 175.499 M192.789 178.421 C 192.547 178.872,192.427 179.637,192.520 180.121 C 192.660 180.841,192.701 180.799,192.746 179.887 C 192.775 179.276,193.070 178.671,193.400 178.545 C 194.065 178.290,194.221 177.600,193.614 177.600 C 193.402 177.600,193.031 177.969,192.789 178.421 M192.800 189.957 C 192.800 190.154,193.070 190.418,193.400 190.545 C 193.765 190.685,194.000 190.545,194.000 190.187 C 194.000 189.864,193.730 189.600,193.400 189.600 C 193.070 189.600,192.800 189.761,192.800 189.957 M109.700 192.705 C 96.468 192.795,94.400 192.890,94.400 193.405 C 94.400 194.323,124.710 194.301,125.062 193.383 C 125.387 192.535,126.617 192.589,109.700 192.705 M275.462 192.700 C 275.360 192.865,282.054 193.000,290.338 193.000 C 302.174 193.000,305.379 193.107,305.300 193.500 C 305.245 193.775,305.380 194.000,305.600 194.000 C 306.246 194.000,306.058 192.908,305.367 192.643 C 304.446 192.289,275.682 192.344,275.462 192.700 M153.067 193.067 C 152.320 193.813,153.444 193.944,160.977 193.984 C 169.234 194.027,171.776 193.811,170.738 193.153 C 170.109 192.754,153.461 192.673,153.067 193.067 M275.383 210.400 C 275.383 219.750,275.436 223.575,275.500 218.900 C 275.564 214.225,275.564 206.575,275.500 201.900 C 275.436 197.225,275.383 201.050,275.383 210.400 M170.800 195.800 C 170.800 196.130,171.092 196.400,171.449 196.400 C 171.980 196.400,172.008 196.291,171.600 195.800 C 171.326 195.470,171.034 195.200,170.951 195.200 C 170.868 195.200,170.800 195.470,170.800 195.800 M195.588 196.778 C 196.217 197.953,196.792 198.146,196.263 197.004 C 196.008 196.455,195.659 196.005,195.486 196.003 C 195.313 196.001,195.359 196.350,195.588 196.778 M172.086 198.700 C 172.421 199.085,172.795 199.670,172.916 200.000 C 173.068 200.414,173.147 200.437,173.168 200.074 C 173.215 199.294,172.438 198.000,171.924 198.000 C 171.655 198.000,171.720 198.280,172.086 198.700 M197.988 200.778 C 198.617 201.953,199.192 202.146,198.663 201.004 C 198.408 200.455,198.059 200.005,197.886 200.003 C 197.713 200.001,197.759 200.350,197.988 200.778 M172.900 201.632 C 173.285 201.856,173.600 202.301,173.600 202.620 C 173.600 202.939,173.776 203.200,173.991 203.200 C 174.230 203.200,174.204 202.808,173.927 202.200 C 173.677 201.650,173.185 201.205,172.836 201.212 C 172.295 201.223,172.304 201.285,172.900 201.632 M201.400 204.351 C 202.500 205.511,203.707 206.628,204.081 206.834 C 204.871 207.268,201.392 203.663,200.200 202.813 C 199.760 202.499,200.300 203.191,201.400 204.351 M176.537 207.796 C 176.792 208.345,177.141 208.795,177.314 208.797 C 177.682 208.801,176.963 207.348,176.435 207.022 C 176.237 206.899,176.283 207.248,176.537 207.796 M241.600 206.949 C 241.600 206.989,241.960 207.330,242.400 207.707 C 243.013 208.232,243.200 208.263,243.200 207.843 C 243.200 207.541,242.840 207.199,242.400 207.084 C 241.960 206.969,241.600 206.908,241.600 206.949 M237.870 208.679 C 237.248 209.005,236.826 209.360,236.933 209.466 C 237.142 209.676,239.600 208.500,239.600 208.190 C 239.600 207.892,239.094 208.035,237.870 208.679 M210.221 209.561 C 209.478 209.852,209.483 209.876,210.321 210.095 C 210.919 210.252,211.200 210.145,211.200 209.763 C 211.200 209.453,211.155 209.213,211.100 209.228 C 211.045 209.244,210.650 209.393,210.221 209.561 M232.800 210.545 C 232.800 210.922,233.135 211.025,233.889 210.881 C 234.866 210.694,234.897 210.641,234.189 210.365 C 233.028 209.911,232.800 209.941,232.800 210.545 M212.976 211.013 C 213.404 211.336,214.034 211.599,214.376 211.598 C 214.719 211.596,214.484 211.326,213.854 210.998 C 212.404 210.241,211.966 210.249,212.976 211.013 M216.000 211.400 C 216.274 211.730,216.650 212.000,216.836 212.000 C 217.023 212.000,217.071 211.730,216.945 211.400 C 216.818 211.070,216.442 210.800,216.108 210.800 C 215.615 210.800,215.595 210.912,216.000 211.400 M229.866 211.371 C 229.746 211.685,229.142 212.018,228.524 212.111 L 227.400 212.280 228.456 212.340 C 229.036 212.373,229.936 212.046,230.456 211.613 C 231.198 210.995,231.259 210.824,230.743 210.813 C 230.381 210.806,229.987 211.057,229.866 211.371 M218.100 212.276 C 218.485 212.376,219.115 212.376,219.500 212.276 C 219.885 212.175,219.570 212.093,218.800 212.093 C 218.030 212.093,217.715 212.175,218.100 212.276 M245.445 213.012 C 245.810 213.569,246.186 213.947,246.282 213.851 C 246.519 213.614,245.484 212.000,245.095 212.000 C 244.922 212.000,245.080 212.456,245.445 213.012 M159.500 213.099 C 163.075 213.166,168.925 213.166,172.500 213.099 C 176.075 213.033,173.150 212.979,166.000 212.979 C 158.850 212.979,155.925 213.033,159.500 213.099 M186.400 219.385 C 186.400 219.839,189.229 222.457,189.580 222.328 C 189.772 222.258,189.135 221.512,188.165 220.672 C 187.194 219.832,186.400 219.253,186.400 219.385 M250.277 222.823 C 250.995 224.037,250.993 224.051,250.000 224.814 C 249.450 225.237,249.180 225.580,249.400 225.578 C 249.967 225.573,251.200 224.584,251.200 224.136 C 251.200 223.490,250.216 221.606,249.877 221.603 C 249.700 221.601,249.880 222.150,250.277 222.823 M190.403 222.686 C 190.405 222.859,190.855 223.208,191.404 223.463 C 191.952 223.717,192.301 223.763,192.178 223.565 C 191.852 223.037,190.399 222.318,190.403 222.686 M195.203 225.886 C 195.205 226.059,195.655 226.408,196.204 226.663 C 196.752 226.917,197.101 226.963,196.978 226.765 C 196.652 226.237,195.199 225.518,195.203 225.886 M247.544 226.390 L 246.600 227.181 247.697 226.690 C 248.300 226.421,248.795 226.065,248.797 225.900 C 248.802 225.441,248.571 225.531,247.544 226.390 M244.976 227.387 C 244.549 227.710,244.380 227.975,244.600 227.975 C 244.820 227.975,245.349 227.710,245.776 227.387 C 246.204 227.064,246.373 226.800,246.153 226.800 C 245.933 226.800,245.404 227.064,244.976 227.387 M198.400 227.800 C 198.400 228.128,198.700 228.247,199.200 228.116 C 199.640 228.001,200.000 227.859,200.000 227.800 C 200.000 227.741,199.640 227.599,199.200 227.484 C 198.700 227.353,198.400 227.472,198.400 227.800 M236.400 230.800 C 235.800 231.320,235.675 231.600,236.043 231.600 C 236.353 231.600,236.832 231.240,237.107 230.800 C 237.382 230.360,237.543 230.000,237.465 230.000 C 237.386 230.000,236.907 230.360,236.400 230.800 M77.900 231.099 C 81.035 231.167,86.165 231.167,89.300 231.099 C 92.435 231.032,89.870 230.976,83.600 230.976 C 77.330 230.976,74.765 231.032,77.900 231.099 M209.455 231.800 C 209.582 232.130,209.949 232.400,210.271 232.400 C 210.779 232.400,210.778 232.320,210.257 231.800 C 209.927 231.470,209.560 231.200,209.441 231.200 C 209.322 231.200,209.329 231.470,209.455 231.800 M232.400 231.571 C 232.400 231.775,232.085 232.024,231.700 232.124 C 231.148 232.269,231.181 232.317,231.857 232.354 C 232.329 232.379,232.818 232.130,232.945 231.800 C 233.071 231.470,233.001 231.200,232.787 231.200 C 232.574 231.200,232.400 231.367,232.400 231.571 M259.723 231.499 C 262.541 231.568,267.041 231.568,269.723 231.499 C 272.405 231.430,270.100 231.373,264.600 231.373 C 259.100 231.374,256.905 231.430,259.723 231.499 M311.500 231.499 C 314.195 231.568,318.605 231.568,321.300 231.499 C 323.995 231.430,321.790 231.373,316.400 231.373 C 311.010 231.373,308.805 231.430,311.500 231.499 M212.700 231.882 C 213.195 231.978,214.005 231.978,214.500 231.882 C 214.995 231.787,214.590 231.709,213.600 231.709 C 212.610 231.709,212.205 231.787,212.700 231.882 M226.905 231.887 C 227.514 231.979,228.414 231.977,228.905 231.882 C 229.397 231.787,228.900 231.711,227.800 231.714 C 226.700 231.717,226.297 231.795,226.905 231.887 M217.024 232.587 C 217.890 233.242,222.800 233.447,222.800 232.828 C 222.800 232.623,223.205 232.378,223.700 232.282 C 224.195 232.187,222.721 232.084,220.424 232.054 C 216.672 232.006,216.326 232.060,217.024 232.587 " stroke="none" fill="#7435ec" fill-rule="evenodd"></path><path id="path3" d="M215.105 135.883 C 215.602 135.979,216.322 135.975,216.705 135.875 C 217.087 135.775,216.680 135.696,215.800 135.701 C 214.920 135.705,214.607 135.787,215.105 135.883 M226.900 135.876 C 227.285 135.976,227.915 135.976,228.300 135.876 C 228.685 135.775,228.370 135.693,227.600 135.693 C 226.830 135.693,226.515 135.775,226.900 135.876 M235.701 136.800 C 235.790 137.130,236.299 137.433,236.831 137.474 C 237.595 137.532,237.631 137.501,237.000 137.328 C 236.560 137.207,236.051 136.903,235.870 136.654 C 235.651 136.354,235.594 136.404,235.701 136.800 M261.100 136.693 C 262.035 136.777,263.565 136.777,264.500 136.693 C 265.435 136.609,264.670 136.540,262.800 136.540 C 260.930 136.540,260.165 136.609,261.100 136.693 M272.000 136.731 C 272.000 136.913,272.540 136.982,273.200 136.885 C 273.860 136.788,274.400 136.640,274.400 136.555 C 274.400 136.470,273.860 136.400,273.200 136.400 C 272.540 136.400,272.000 136.549,272.000 136.731 M320.800 136.792 C 320.800 137.029,321.556 137.086,322.700 136.936 C 325.285 136.598,325.346 136.400,322.867 136.400 C 321.730 136.400,320.800 136.577,320.800 136.792 M349.200 136.800 C 349.200 137.301,349.624 137.301,350.400 136.800 C 350.885 136.486,350.828 136.411,350.100 136.406 C 349.605 136.403,349.200 136.580,349.200 136.800 M352.505 136.687 C 353.114 136.779,354.014 136.777,354.505 136.682 C 354.997 136.587,354.500 136.511,353.400 136.514 C 352.300 136.517,351.897 136.595,352.505 136.687 M49.300 137.499 C 52.105 137.568,56.695 137.568,59.500 137.499 C 62.305 137.430,60.010 137.374,54.400 137.374 C 48.790 137.374,46.495 137.430,49.300 137.499 M85.900 137.500 C 93.435 137.561,105.765 137.561,113.300 137.500 C 120.835 137.439,114.670 137.389,99.600 137.389 C 84.530 137.389,78.365 137.439,85.900 137.500 M145.500 137.500 C 152.815 137.561,164.785 137.561,172.100 137.500 C 179.415 137.439,173.430 137.389,158.800 137.389 C 144.170 137.389,138.185 137.439,145.500 137.500 M43.750 142.200 C 43.751 144.620,43.816 145.558,43.896 144.285 C 43.976 143.012,43.975 141.032,43.894 139.885 C 43.814 138.738,43.749 139.780,43.750 142.200 M127.366 145.600 C 127.366 149.670,127.425 151.335,127.498 149.300 C 127.571 147.265,127.571 143.935,127.498 141.900 C 127.425 139.865,127.366 141.530,127.366 145.600 M356.160 144.600 C 356.161 147.900,356.222 149.197,356.298 147.482 C 356.373 145.767,356.372 143.067,356.297 141.482 C 356.221 139.897,356.159 141.300,356.160 144.600 M131.761 145.200 C 131.761 148.610,131.822 150.005,131.897 148.300 C 131.972 146.595,131.972 143.805,131.897 142.100 C 131.822 140.395,131.761 141.790,131.761 145.200 M194.084 142.615 C 193.422 143.366,193.970 143.349,194.976 142.587 C 195.522 142.174,195.582 142.005,195.176 142.015 C 194.859 142.024,194.368 142.294,194.084 142.615 M131.734 156.400 C 131.734 158.050,131.805 158.725,131.891 157.900 C 131.978 157.075,131.978 155.725,131.891 154.900 C 131.805 154.075,131.734 154.750,131.734 156.400 M356.109 156.800 C 356.109 157.790,356.187 158.195,356.282 157.700 C 356.378 157.205,356.378 156.395,356.282 155.900 C 356.187 155.405,356.109 155.810,356.109 156.800 M224.800 156.800 C 224.800 157.020,225.160 157.200,225.600 157.200 C 226.040 157.200,226.400 157.020,226.400 156.800 C 226.400 156.580,226.040 156.400,225.600 156.400 C 225.160 156.400,224.800 156.580,224.800 156.800 M131.748 165.600 C 131.748 167.910,131.814 168.855,131.895 167.700 C 131.976 166.545,131.976 164.655,131.895 163.500 C 131.814 162.345,131.748 163.290,131.748 165.600 M201.381 164.900 L 199.800 166.600 201.500 165.019 C 203.081 163.548,203.384 163.200,203.081 163.200 C 203.016 163.200,202.251 163.965,201.381 164.900 M131.779 186.000 C 131.779 193.370,131.833 196.385,131.899 192.700 C 131.965 189.015,131.965 182.985,131.899 179.300 C 131.833 175.615,131.779 178.630,131.779 186.000 M356.093 203.600 C 356.093 204.370,356.175 204.685,356.276 204.300 C 356.376 203.915,356.376 203.285,356.276 202.900 C 356.175 202.515,356.093 202.830,356.093 203.600 M205.918 207.428 C 206.411 207.773,207.127 207.974,207.507 207.874 C 208.020 207.740,207.966 207.681,207.300 207.646 C 206.805 207.621,206.400 207.420,206.400 207.200 C 206.400 206.980,206.090 206.800,205.711 206.800 C 205.147 206.800,205.185 206.914,205.918 207.428 M228.000 211.600 L 226.600 211.895 227.876 211.947 C 228.578 211.976,229.264 211.820,229.400 211.600 C 229.536 211.380,229.592 211.224,229.524 211.253 C 229.456 211.282,228.770 211.438,228.000 211.600 M218.705 211.883 C 219.202 211.979,219.922 211.975,220.305 211.875 C 220.687 211.775,220.280 211.696,219.400 211.701 C 218.520 211.705,218.207 211.787,218.705 211.883 M131.770 220.400 C 131.770 225.130,131.828 227.065,131.898 224.700 C 131.969 222.335,131.969 218.465,131.898 216.100 C 131.828 213.735,131.770 215.670,131.770 220.400 M157.700 212.687 C 158.305 212.778,159.295 212.778,159.900 212.687 C 160.505 212.595,160.010 212.520,158.800 212.520 C 157.590 212.520,157.095 212.595,157.700 212.687 M176.500 212.676 C 176.885 212.776,177.515 212.776,177.900 212.676 C 178.285 212.575,177.970 212.493,177.200 212.493 C 176.430 212.493,176.115 212.575,176.500 212.676 M43.693 222.800 C 43.693 223.570,43.775 223.885,43.876 223.500 C 43.976 223.115,43.976 222.485,43.876 222.100 C 43.775 221.715,43.693 222.030,43.693 222.800 M356.150 225.800 C 356.151 228.220,356.216 229.158,356.296 227.885 C 356.376 226.612,356.375 224.632,356.294 223.485 C 356.214 222.338,356.149 223.380,356.150 225.800 M47.300 231.491 C 48.125 231.578,49.475 231.578,50.300 231.491 C 51.125 231.405,50.450 231.334,48.800 231.334 C 47.150 231.334,46.475 231.405,47.300 231.491 M52.900 231.476 C 53.285 231.576,53.915 231.576,54.300 231.476 C 54.685 231.375,54.370 231.293,53.600 231.293 C 52.830 231.293,52.515 231.375,52.900 231.476 M56.700 231.489 C 57.415 231.578,58.585 231.578,59.300 231.489 C 60.015 231.401,59.430 231.328,58.000 231.328 C 56.570 231.328,55.985 231.401,56.700 231.489 M76.500 231.487 C 77.105 231.578,78.095 231.578,78.700 231.487 C 79.305 231.395,78.810 231.320,77.600 231.320 C 76.390 231.320,75.895 231.395,76.500 231.487 M87.100 231.489 C 87.815 231.578,88.985 231.578,89.700 231.489 C 90.415 231.401,89.830 231.328,88.400 231.328 C 86.970 231.328,86.385 231.401,87.100 231.489 M136.100 231.494 C 137.145 231.576,138.855 231.576,139.900 231.494 C 140.945 231.412,140.090 231.344,138.000 231.344 C 135.910 231.344,135.055 231.412,136.100 231.494 M150.311 231.493 C 151.251 231.578,152.691 231.577,153.511 231.491 C 154.330 231.405,153.560 231.336,151.800 231.337 C 150.040 231.339,149.370 231.409,150.311 231.493 M162.074 231.499 C 165.745 231.565,171.865 231.565,175.674 231.499 C 179.483 231.434,176.480 231.380,169.000 231.380 C 161.520 231.379,158.403 231.433,162.074 231.499 M212.100 232.276 C 212.485 232.376,213.115 232.376,213.500 232.276 C 213.885 232.175,213.570 232.093,212.800 232.093 C 212.030 232.093,211.715 232.175,212.100 232.276 M227.900 232.282 C 228.395 232.378,229.205 232.378,229.700 232.282 C 230.195 232.187,229.790 232.109,228.800 232.109 C 227.810 232.109,227.405 232.187,227.900 232.282 M225.000 232.800 C 224.864 233.020,225.134 233.200,225.600 233.200 C 226.066 233.200,226.336 233.020,226.200 232.800 C 226.064 232.580,225.794 232.400,225.600 232.400 C 225.406 232.400,225.136 232.580,225.000 232.800 " stroke="none" fill="#8454f4" fill-rule="evenodd"></path><path id="path4" d="M219.000 135.200 C 218.864 135.420,218.373 135.600,217.910 135.600 C 217.446 135.600,217.174 135.707,217.305 135.838 C 217.652 136.185,220.000 135.602,220.000 135.168 C 220.000 134.676,219.310 134.698,219.000 135.200 M222.800 135.200 C 222.800 135.420,223.048 135.600,223.350 135.600 C 223.653 135.600,224.507 135.706,225.250 135.836 L 226.600 136.072 225.454 135.436 C 224.163 134.719,222.800 134.598,222.800 135.200 M259.724 137.499 C 262.762 137.567,267.622 137.567,270.524 137.499 C 273.426 137.431,270.940 137.375,265.000 137.375 C 259.060 137.375,256.686 137.431,259.724 137.499 M310.700 137.499 C 313.835 137.567,318.965 137.567,322.100 137.499 C 325.235 137.432,322.670 137.376,316.400 137.376 C 310.130 137.376,307.565 137.432,310.700 137.499 M340.476 137.499 C 343.268 137.567,347.948 137.568,350.876 137.499 C 353.804 137.431,351.520 137.375,345.800 137.374 C 340.080 137.374,337.684 137.430,340.476 137.499 M64.993 184.400 C 64.993 210.030,65.041 220.515,65.100 207.700 C 65.159 194.885,65.159 173.915,65.100 161.100 C 65.041 148.285,64.993 158.770,64.993 184.400 M334.896 184.476 C 334.843 210.148,334.935 231.236,335.100 231.338 C 335.371 231.506,335.369 198.881,335.095 154.600 C 335.038 145.360,334.948 158.804,334.896 184.476 M186.400 148.024 C 186.400 148.257,186.192 148.319,185.938 148.162 C 185.645 147.981,185.585 148.053,185.774 148.358 C 186.004 148.730,186.222 148.724,186.736 148.333 C 187.101 148.054,187.475 147.775,187.567 147.713 C 187.658 147.651,187.433 147.600,187.067 147.600 C 186.700 147.600,186.400 147.791,186.400 148.024 M154.900 156.291 C 155.725 156.378,157.075 156.378,157.900 156.291 C 158.725 156.205,158.050 156.134,156.400 156.134 C 154.750 156.134,154.075 156.205,154.900 156.291 M178.074 157.120 C 177.564 157.648,177.218 158.152,177.305 158.239 C 177.392 158.326,177.885 157.948,178.400 157.400 C 178.915 156.852,179.261 156.348,179.168 156.281 C 179.076 156.214,178.583 156.592,178.074 157.120 M221.900 156.276 C 221.515 156.376,221.200 156.625,221.200 156.829 C 221.200 157.326,222.289 157.304,222.600 156.800 C 222.736 156.580,223.647 156.400,224.624 156.400 C 225.601 156.400,226.400 156.580,226.400 156.800 C 226.400 157.020,226.602 157.200,226.849 157.200 C 227.159 157.200,227.144 157.015,226.800 156.600 C 226.319 156.021,223.572 155.839,221.900 156.276 M214.267 157.067 C 213.884 157.449,213.938 158.000,214.357 158.000 C 214.554 158.000,214.818 157.730,214.945 157.400 C 215.179 156.790,214.753 156.581,214.267 157.067 M152.989 166.200 L 153.000 175.000 161.645 175.108 C 169.520 175.206,170.337 175.152,170.825 174.508 C 171.282 173.905,171.279 173.874,170.801 174.300 C 170.389 174.667,167.972 174.800,161.728 174.800 L 153.215 174.800 153.096 166.100 L 152.977 157.400 152.989 166.200 M209.780 158.761 C 209.571 158.960,209.040 159.209,208.600 159.315 C 207.841 159.497,207.844 159.510,208.651 159.554 C 209.119 159.579,209.726 159.330,210.000 159.000 C 210.543 158.346,210.391 158.181,209.780 158.761 M201.600 164.200 C 200.628 165.190,199.923 166.000,200.033 166.000 C 200.143 166.000,201.028 165.190,202.000 164.200 C 202.972 163.210,203.677 162.400,203.567 162.400 C 203.457 162.400,202.572 163.210,201.600 164.200 M195.040 173.240 C 194.572 174.178,194.555 174.370,194.967 174.027 C 195.459 173.619,196.118 172.000,195.792 172.000 C 195.719 172.000,195.380 172.558,195.040 173.240 M94.400 174.900 C 94.400 175.065,101.375 175.161,109.900 175.112 C 118.425 175.064,122.970 174.975,120.000 174.914 C 106.315 174.633,94.399 174.627,94.400 174.900 M275.462 193.100 C 275.360 193.265,282.082 193.400,290.400 193.400 C 298.718 193.400,305.440 193.265,305.338 193.100 C 305.236 192.935,298.514 192.800,290.400 192.800 C 282.286 192.800,275.564 192.935,275.462 193.100 M152.972 203.000 C 152.972 208.060,153.029 210.075,153.099 207.477 C 153.169 204.880,153.168 200.740,153.098 198.277 C 153.028 195.815,152.971 197.940,152.972 203.000 M200.000 202.511 C 200.000 202.587,200.585 203.078,201.300 203.601 C 202.104 204.190,202.384 204.287,202.033 203.855 C 201.500 203.199,200.000 202.207,200.000 202.511 M202.588 205.181 C 202.718 205.391,203.404 205.951,204.112 206.426 L 205.400 207.290 204.046 206.045 C 202.681 204.790,202.154 204.478,202.588 205.181 M214.900 232.287 C 215.505 232.378,216.000 232.621,216.000 232.827 C 216.000 233.032,216.405 233.194,216.900 233.187 C 217.777 233.175,217.781 233.160,217.024 232.587 C 216.596 232.264,215.696 232.027,215.024 232.060 C 213.816 232.119,213.814 232.122,214.900 232.287 M223.700 232.282 C 223.205 232.378,222.800 232.623,222.800 232.828 C 222.800 233.308,224.523 233.313,225.020 232.834 C 225.229 232.632,225.850 232.387,226.400 232.288 C 227.118 232.160,227.005 232.109,226.000 232.109 C 225.230 232.109,224.195 232.187,223.700 232.282 " stroke="none" fill="#844cf0" fill-rule="evenodd"></path></g></svg>